<?xml version="1.0" encoding="utf-8"?>
<!-- Generator: Adobe Illustrator 23.1.1, SVG Export Plug-In . SVG Version: 6.00 Build 0)  -->
<svg version="1.1" id="Layer_1" xmlns="http://www.w3.org/2000/svg" xmlns:xlink="http://www.w3.org/1999/xlink" x="0px" y="0px"
	 viewBox="0 0 171 159.9" style="enable-background:new 0 0 171 159.9;" xml:space="preserve">
<style type="text/css">
	.st0{fill:#333333;}
	.st1{fill:#DD96AE;}
</style>
<rect class="st0" width="171" height="159.9"/>
<g>
	<g>
		<g>
			<path class="st1" d="M139,32.4v95.2h-24.1V55l-18.6,72.6H74.6L56,55v72.6H31.9V32.4h38.7l14.9,57.9l14.8-57.9H139 M143,28.4h-4
				h-38.7h-3.1l-0.8,3l-11,42.8l-11-42.8l-0.8-3h-3.1H31.9h-4v4v95.2v4h4H56h4v-4V86.8l10.7,41.7l0.8,3h3.1h21.8h3.1l0.8-3
				l10.7-41.8v40.8v4h4H139h4v-4V32.4V28.4L143,28.4z"/>
		</g>
	</g>
</g>
</svg>
